<svg width="550" height="480" viewBox="0 0 550 480" fill="none" xmlns="http://www.w3.org/2000/svg">
<path d="M377.11 17.2203C377.11 10.7071 373.339 4.53671 367.511 1.79431C361.341 -1.29089 354.485 -0.262487 349.343 3.85111L197.48 124.859L377.11 304.486V17.2203Z" fill="white"/>
<path d="M474.937 450.725L29.2993 5.08522C22.6147 -1.59938 11.748 -1.59938 5.06347 5.08522C-1.62109 11.7698 -1.62109 22.6366 5.06347 29.3212L112.908 137.2H102.864C92.237 137.2 82.9814 141.999 76.8111 149.541C71.6691 155.369 68.5839 163.253 68.5839 171.48V308.6C68.5839 327.454 84.0098 342.88 102.864 342.88H182.393L349.335 476.229C352.421 478.629 356.191 480 359.962 480C362.362 480 365.104 479.314 367.504 478.286C373.331 475.544 377.102 469.373 377.102 462.86V401.396L450.666 474.961C454.026 478.32 458.414 480 462.802 480C467.189 480 471.577 478.32 474.937 474.995C481.621 468.276 481.621 457.444 474.937 450.725V450.725Z" fill="white"/>
</svg>
