<svg width="449" height="449" viewBox="0 0 449 449" fill="none" xmlns="http://www.w3.org/2000/svg">
<g clip-path="url(#clip0)">
<path d="M352.021 16.075C352.021 9.99499 348.501 4.23499 343.061 1.67499C337.301 -1.20501 330.901 -0.245013 326.101 3.59499L184.341 116.555L352.021 284.235V16.075Z" fill="white"/>
<path d="M443.349 420.747L27.3489 4.74699C21.1089 -1.49301 10.9649 -1.49301 4.72492 4.74699C-1.51508 10.987 -1.51508 21.131 4.72492 27.371L105.397 128.075H96.0209C86.1009 128.075 77.4609 132.555 71.7009 139.595C66.9009 145.035 64.0209 152.395 64.0209 160.075V288.075C64.0209 305.675 78.4209 320.075 96.0209 320.075H170.261L326.101 444.555C328.981 446.795 332.501 448.075 336.021 448.075C338.261 448.075 340.821 447.435 343.061 446.475C348.501 443.915 352.021 438.155 352.021 432.075V374.699L420.693 443.371C423.829 446.507 427.925 448.075 432.021 448.075C436.117 448.075 440.213 446.507 443.349 443.403C449.589 437.131 449.589 427.019 443.349 420.747V420.747Z" fill="white"/>
</g>
<defs>
<clipPath id="clip0">
<rect width="448.075" height="448.075" fill="white"/>
</clipPath>
</defs>
</svg>
