<svg width="550" height="480" viewBox="0 0 550 480" fill="none" xmlns="http://www.w3.org/2000/svg">
<g clip-path="url(#clip0)">
<path d="M365.315 1.69995C359.36 -1.14564 352.345 -0.391389 347.212 3.75701L180.755 137.157H101.222C82.3658 137.157 67 152.551 67 171.441V308.579C67 327.504 82.3658 342.863 101.222 342.863H180.755L347.177 476.263C350.292 478.731 354.09 480 357.889 480C360.421 480 362.954 479.417 365.315 478.286C371.236 475.44 375 469.44 375 462.858V17.1622C375 10.5796 371.236 4.57983 365.315 1.69995V1.69995Z" fill="white"/>
<path d="M432.24 126.604C425.936 120.396 415.824 120.492 409.616 126.732C403.408 133.036 403.472 143.148 409.744 149.388C433.936 173.26 447.248 205.356 447.248 239.756C447.248 274.156 433.936 306.252 409.744 330.124C403.472 336.3 403.408 346.444 409.616 352.748C412.752 355.916 416.88 357.484 420.976 357.484C425.04 357.484 429.104 355.948 432.24 352.844C462.576 322.988 479.248 282.796 479.248 239.756C479.248 196.716 462.576 156.524 432.24 126.604V126.604Z" fill="white"/>
<path d="M484.276 81.6442C477.972 75.4042 467.86 75.4682 461.62 81.7402C455.412 88.0122 455.476 98.1562 461.716 104.364C498.1 140.428 518.132 188.556 518.132 239.884C518.132 291.212 498.1 339.308 461.716 375.372C455.476 381.612 455.412 391.756 461.62 398.028C464.788 401.164 468.884 402.732 472.98 402.732C477.044 402.732 481.14 401.196 484.276 398.092C526.772 356.012 550.132 299.82 550.132 239.884C550.132 179.948 526.772 123.756 484.276 81.6442V81.6442Z" fill="white"/>
</g>
<defs>
<clipPath id="clip0">
<rect width="550" height="480" fill="white"/>
</clipPath>
</defs>
</svg>
