<svg width="143" height="184" viewBox="0 0 143 184" fill="none" xmlns="http://www.w3.org/2000/svg">
<path d="M5.31111 124.9C41.4111 189.9 71.0111 183.4 71.0111 183.4V0C26.2111 0 0.311111 17.3 0.311111 17.3C0.311111 17.3 -0.388889 93.1 0.311111 106.1C0.911111 119.1 5.31111 124.9 5.31111 124.9Z" fill="#FF577F"/>
<path d="M141.711 17.3C141.711 17.3 115.711 0 71.0112 0C36.8112 0 12.4112 11.5 0.311157 17.3C0.311157 19.7 0.211182 27.2 0.211182 35.6C2.61118 34.1 28.2111 18.6 71.1111 18.6V183.4C71.1111 183.4 100.711 189.9 136.811 124.9C136.811 124.9 141.111 119.1 141.911 106.1C142.411 93.1 141.711 17.3 141.711 17.3Z" fill="#F44E76"/>
<path d="M53.5111 76.3L46.0111 68.9L53.5111 61.4L42.9111 50.8L35.4111 58.3L28.0111 50.8L17.4111 61.4L24.8111 68.9L17.4111 76.3L28.0111 86.9L35.4111 79.5L42.9111 86.9L53.5111 76.3Z" fill="#A32364"/>
<path d="M121.811 76.3L114.411 68.9L121.811 61.4L111.311 50.8L103.811 58.3L96.4111 50.8L85.811 61.4L93.2111 68.9L85.811 76.3L96.4111 86.9L103.811 79.5L111.311 86.9L121.811 76.3Z" fill="#A32364"/>
<path d="M109.511 121.2H35.4111V127.6H109.511V121.2Z" fill="#A32364"/>
</svg>
