<svg width="422" height="425" viewBox="0 0 422 425" fill="none" xmlns="http://www.w3.org/2000/svg">
<path d="M148.072 287.903C156.658 407.949 204.612 418.641 204.612 418.641L329.841 149.389C264.067 118.771 214.17 126.547 214.17 126.547C214.17 126.547 161.357 237.358 153.58 256.961C145.642 276.401 148.072 287.903 148.072 287.903Z" fill="#FF577F"/>
<path d="M421.86 223.1C421.86 223.1 395.453 179.844 329.841 149.387C279.62 126.059 236.689 125.411 214.818 125.573C213.198 129.137 207.204 140.801 201.372 153.113C205.908 152.465 254.185 147.281 317.205 176.442L204.612 418.477C204.612 418.477 243.655 448.286 341.02 377.49C341.02 377.49 351.388 371.982 361.27 353.351C371.152 334.883 421.86 223.1 421.86 223.1Z" fill="#EB5277"/>
<path d="M289.341 377.651C289.341 377.651 249.974 336.988 183.714 330.346C183.714 330.346 218.221 297.783 254.51 313.983C290.799 330.184 289.341 377.651 289.341 377.651Z" fill="#A32364"/>
<path d="M205.745 200.257C205.745 200.257 204.449 232.01 224.7 244.16C243.33 255.5 263.095 243.188 263.095 243.188C263.095 243.188 238.956 241.568 224.7 228.445C211.091 215.809 205.745 200.257 205.745 200.257Z" fill="#A32364"/>
<path d="M380.711 276.886C380.711 276.886 358.355 299.405 335.512 292.762C314.613 286.606 310.239 263.926 310.239 263.926C310.239 263.926 327.736 280.45 347.014 282.07C365.807 283.528 380.711 276.886 380.711 276.886Z" fill="#A32364"/>
<path d="M44.0653 225.69C122.962 316.575 167.675 296.324 167.675 296.324L106.275 5.68802C35.317 20.7545 0 56.8815 0 56.8815C0 56.8815 24.3007 177.251 29.8089 197.664C35.155 218.076 44.0653 225.69 44.0653 225.69Z" fill="#B9F0F0"/>
<path d="M224.214 9.57622C224.214 9.57622 177.233 -9.2163 106.275 5.85013C52.0035 17.3525 16.3625 42.1391 0 57.0436C0.810023 60.7697 3.2401 72.7581 5.83218 86.0424C9.07227 82.8023 44.5513 49.5913 112.431 35.3349L167.675 296.486C167.675 296.486 216.762 296.81 252.241 181.787C252.241 181.787 257.101 171.257 254.023 150.358C250.783 129.46 224.214 9.57622 224.214 9.57622Z" fill="#A1DCDC"/>
<path d="M40.0146 154.895C40.0146 154.895 45.1988 123.628 67.5554 115.69C88.13 108.4 104.817 124.438 104.817 124.438C104.817 124.438 80.8398 121.198 64.3153 131.081C48.4389 140.801 40.0146 154.895 40.0146 154.895Z" fill="#4B7088"/>
<path d="M226.969 115.365C226.969 115.365 209.634 88.7958 185.982 90.7398C164.273 92.5219 155.363 113.906 155.363 113.906C155.363 113.906 175.937 101.27 195.054 103.538C213.522 105.968 226.969 115.365 226.969 115.365Z" fill="#4B7088"/>
<path d="M89.4263 205.601C89.4263 205.601 145.318 215.321 202.668 181.624C202.668 181.624 193.919 228.282 155.038 236.544C116.319 244.644 89.4263 205.601 89.4263 205.601Z" fill="#4B7088"/>
</svg>
